{"title":"Katy Perry MTV World Stage Medley 720p.mkv","uid":6602037,"size":471391195,"categoryP":"video","categoryS":"music_videos","magnet":"?xt=urn:btih:9879704a5511d1e8e85b1f0bb122918fd36e8315&amp;dn=Katy+Perry+MTV+World+Stage+Medley+720p.mkv&amp;tr=udp%3A%2F%2Ftracker.openbittorrent.com%3A80&amp;tr=udp%3A%2F%2Fopen.demonii.com%3A1337&amp;tr=udp%3A%2F%2Ftracker.coppersurfer.tk%3A6969&amp;tr=udp%3A%2F%2Fexodus.desync.com%3A6969","seeders":0,"leechers":1,"uploader":"Rcube.ind","files":1,"time":1313243171,"description":"General\n\nComplete name                    : D:\\English Music Videos\\Katy Perry Sunywway Medley\\Katy Perry MTV World Stage Medley 720p.mkv\nFormat                           : Matroska\nFile size                        : 450 MiB\nDuration                         : 19mn 38s\nOverall bit rate                 : 3 200 Kbps\nEncoded date                     : UTC 2011-05-14 12:16:18\nWriting application              : mkvmerge v4.7.0 ('Just Like You Imagined') built on Apr 21 2011 01:13:14\nWriting library                  : libebml v1.2.0 + libmatroska v1.1.0\n\nVideo\nID                               : 1\nFormat                           : AVC\nFormat/Info                      : Advanced Video Codec\nFormat profile                   : &lt;a class=&quot;__cf_email__&quot; href=&quot;/cdn-cgi/l/email-protection&quot; data-cfemail=&quot;551d3c323d1519617b64&quot;&gt;[email&amp;#160;protected]&lt;/a&gt;&lt;script cf-hash='f9e31' type=&quot;text/javascript&quot;&gt;\n/* &lt;![CDATA[ */!function(){try{var t=&quot;currentScript&quot;in document?document.currentScript:function(){for(var t=document.getElementsByTagName(&quot;script&quot;),e=t.length;e--;)if(t[e].getAttribute(&quot;cf-hash&quot;))return t[e]}();if(t&amp;&amp;t.previousSibling){var e,r,n,i,c=t.previousSibling,a=c.getAttribute(&quot;data-cfemail&quot;);if(a){for(e=&quot;&quot;,r=parseInt(a.substr(0,2),16),n=2;a.length-n;n+=2)i=parseInt(a.substr(n,2),16)^r,e+=String.fromCharCode(i);e=document.createTextNode(e),c.parentNode.replaceChild(e,c)}}}catch(u){}}();/* ]]&gt; */&lt;/script&gt;\nFormat settings, CABAC           : Yes\nFormat settings, ReFrames        : 3 frames\nCodec ID                         : V_MPEG4/ISO/AVC\nDuration                         : 19mn 38s\nBit rate mode                    : Variable\nBit rate                         : 2 751 Kbps\nMaximum bit rate                 : 14.0 Mbps\nWidth                            : 1 280 pixels\nHeight                           : 720 pixels\nDisplay aspect ratio             : 16:9\nFrame rate                       : 25.000 fps\nColor space                      : YUV\nChroma subsampling               : 4:2:0\nBit depth                        : 8 bits\nScan type                        : Progressive\nBits/(Pixel*Frame)               : 0.119\nStream size                      : 378 MiB (84%)\n RP177\n\nAudio\nID                               : 2\nFormat                           : AC-3\nFormat/Info                      : Audio Coding 3\nMode extension                   : CM (complete main)\nCodec ID                         : A_AC3\nDuration                         : 19mn 38s\nBit rate mode                    : Constant\nBit rate                         : 448 Kbps\nChannel(s)                       : 6 channels\nChannel positions                : Front: L C R, Side: L R, LFE\nSampling rate                    : 48.0 KHz\nBit depth                        : 16 bits\nCompression mode                 : Lossy\nStream size                      : 62.9 MiB (14%)\n\n\n\nSCREENSHOTS:\n &lt;a href=&quot;\nhttp://img190.imageshack.us/img190/8393/katyperrymtvworldstagem.jpg&quot; rel=&quot;nofollow&quot; target=&quot;_NEW&quot;&gt;\nhttp://img190.imageshack.us/img190/8393/katyperrymtvworldstagem.jpg&lt;/a&gt;\n\n\nSONGS:\n\n1. California Girls\n2. Waking Up In Vegas\n3. I Kissed A Girl\n4. Teenage Dream\n5. Hot and Cold\n","torrent":{"xt":"urn:btih:9879704a5511d1e8e85b1f0bb122918fd36e8315","amp;dn":"Katy+Perry+MTV+World+Stage+Medley+720p.mkv","amp;tr":["udp%3A%2F%2Ftracker.openbittorrent.com%3A80","udp%3A%2F%2Fopen.demonii.com%3A1337","udp%3A%2F%2Ftracker.coppersurfer.tk%3A6969","udp%3A%2F%2Fexodus.desync.com%3A6969"],"infoHash":"9879704a5511d1e8e85b1f0bb122918fd36e8315","infoHashBuffer":{"type":"Buffer","data":[152,121,112,74,85,17,209,232,232,91,31,11,177,34,145,143,211,110,131,21]},"announce":[],"urlList":[]}}